0
SECTION
2
HEADER
9
$INSUNITS
70
4
9
$ACADVER
1
AC1014
9
$HANDSEED
5
FFFF
0
ENDSEC
0
SECTION
2
TABLES
0
TABLE
2
VPORT
5
8
100
AcDbSymbolTable
0
ENDTAB
0
TABLE
2
LTYPE
5
5
100
AcDbSymbolTable
0
LTYPE
5
14
100
AcDbSymbolTableRecord
100
AcDbLinetypeTableRecord
2
BYBLOCK
70
0
0
LTYPE
5
15
100
AcDbSymbolTableRecord
100
AcDbLinetypeTableRecord
2
BYLAYER
70
0
0
ENDTAB
0
TABLE
2
LAYER
5
2
100
AcDbSymbolTable
70
2
0
LAYER
5
50
100
AcDbSymbolTableRecord
100
AcDbLayerTableRecord
2
0
70
0
6
CONTINUOUS
0
ENDTAB
0
TABLE
2
STYLE
5
3
100
AcDbSymbolTable
70
1
0
STYLE
5
11
100
AcDbSymbolTableRecord
100
AcDbTextStyleTableRecord
2
STANDARD
70
0
0
ENDTAB
0
TABLE
2
VIEW
5
6
100
AcDbSymbolTable
70
0
0
ENDTAB
0
TABLE
2
UCS
5
7
100
AcDbSymbolTable
70
0
0
ENDTAB
0
TABLE
2
APPID
5
9
100
AcDbSymbolTable
70
2
0
APPID
5
12
100
AcDbSymbolTableRecord
100
AcDbRegAppTableRecord
2
ACAD
70
0
0
ENDTAB
0
TABLE
2
DIMSTYLE
5
A
100
AcDbSymbolTable
70
1
0
ENDTAB
0
TABLE
2
BLOCK_RECORD
5
1
100
AcDbSymbolTable
70
1
0
BLOCK_RECORD
5
1F
100
AcDbSymbolTableRecord
100
AcDbBlockTableRecord
2
*MODEL_SPACE
0
BLOCK_RECORD
5
1B
100
AcDbSymbolTableRecord
100
AcDbBlockTableRecord
2
*PAPER_SPACE
0
ENDTAB
0
ENDSEC
0
SECTION
2
BLOCKS
0
BLOCK
5
20
100
AcDbEntity
100
AcDbBlockBegin
2
*MODEL_SPACE
0
ENDBLK
5
21
100
AcDbEntity
100
AcDbBlockEnd
0
BLOCK
5
1C
100
AcDbEntity
100
AcDbBlockBegin
2
*PAPER_SPACE
0
ENDBLK
5
1D
100
AcDbEntity
100
AcDbBlockEnd
0
ENDSEC
0
SECTION
2
ENTITIES
0
LWPOLYLINE
5
100
100
AcDbEntity
8
0
100
AcDbPolyline
90
4
70
1
43
0.0
10
-116.0000017285347
20
-116.0000017285347
10
-116.0000017285347
20
116.0000017285347
10
116.0000017285347
20
116.0000017285347
10
116.0000017285347
20
-116.0000017285347
0
LWPOLYLINE
5
101
100
AcDbEntity
8
0
100
AcDbPolyline
90
4
70
1
43
0.0
10
-91.717261117127435
20
-95.199997872114182
10
91.699997950345278
20
-95.199997872114182
10
91.699997950345292
20
-85.176228558432868
10
-91.717261117127421
20
-85.176228558432868
0
LWPOLYLINE
5
102
100
AcDbEntity
8
0
100
AcDbPolyline
90
4
70
1
43
0.0
10
-91.717261117127435
20
-95.199997872114182
10
91.699997950345278
20
-95.199997872114182
10
91.699997950345292
20
-85.176228558432868
10
-91.717261117127421
20
-85.176228558432868
0
LWPOLYLINE
5
103
100
AcDbEntity
8
0
100
AcDbPolyline
90
4
70
1
43
0.0
10
-91.717261117127435
20
-75.199997872114182
10
91.699997950345278
20
-75.199997872114182
10
91.699997950345292
20
-65.176228558432868
10
-91.717261117127421
20
-65.176228558432868
0
LWPOLYLINE
5
104
100
AcDbEntity
8
0
100
AcDbPolyline
90
4
70
1
43
0.0
10
-91.717261117127435
20
-55.199997872114182
10
91.699997950345278
20
-55.199997872114182
10
91.699997950345292
20
-45.176228558432868
10
-91.717261117127421
20
-45.176228558432868
0
LWPOLYLINE
5
105
100
AcDbEntity
8
0
100
AcDbPolyline
90
4
70
1
43
0.0
10
-91.717261117127435
20
-35.199997872114182
10
91.699997950345278
20
-35.199997872114182
10
91.699997950345292
20
-25.176228558432872
10
-91.717261117127421
20
-25.176228558432872
0
LWPOLYLINE
5
106
100
AcDbEntity
8
0
100
AcDbPolyline
90
4
70
1
43
0.0
10
-91.717261117127435
20
-15.199997872114182
10
91.699997950345278
20
-15.199997872114182
10
91.699997950345292
20
-5.1762285584328716
10
-91.717261117127421
20
-5.1762285584328716
0
LWPOLYLINE
5
107
100
AcDbEntity
8
0
100
AcDbPolyline
90
4
70
1
43
0.0
10
-91.717261117127435
20
4.8000021278858185
10
91.699997950345278
20
4.8000021278858185
10
91.699997950345292
20
14.823771441567128
10
-91.717261117127421
20
14.823771441567128
0
LWPOLYLINE
5
108
100
AcDbEntity
8
0
100
AcDbPolyline
90
4
70
1
43
0.0
10
-91.717261117127435
20
24.800002127885818
10
91.699997950345278
20
24.800002127885818
10
91.699997950345292
20
34.823771441567132
10
-91.717261117127421
20
34.823771441567132
0
LWPOLYLINE
5
109
100
AcDbEntity
8
0
100
AcDbPolyline
90
4
70
1
43
0.0
10
-91.717261117127435
20
44.800002127885818
10
91.699997950345278
20
44.800002127885818
10
91.699997950345292
20
54.823771441567132
10
-91.717261117127421
20
54.823771441567132
0
LWPOLYLINE
5
110
100
AcDbEntity
8
0
100
AcDbPolyline
90
4
70
1
43
0.0
10
-91.717261117127435
20
64.800002127885818
10
91.699997950345278
20
64.800002127885818
10
91.699997950345292
20
74.823771441567132
10
-91.717261117127421
20
74.823771441567132
0
LWPOLYLINE
5
111
100
AcDbEntity
8
0
100
AcDbPolyline
90
4
70
1
43
0.0
10
41.682003441444294
20
84.766205916725369
10
58.352394244319981
20
84.766205916725369
10
58.352394244319981
20
94.820131532723266
10
41.682003441444294
20
94.820131532723266
0
LWPOLYLINE
5
112
100
AcDbEntity
8
0
100
AcDbPolyline
90
4
70
1
43
0.0
10
25.019060910986649
20
84.766205916725369
10
25.019060910986649
20
94.820131532723266
10
8.3486701081109551
20
94.820131532723266
10
8.3486701081109551
20
84.766205916725369
0
LWPOLYLINE
5
113
100
AcDbEntity
8
0
100
AcDbPolyline
90
4
70
1
43
0.0
10
-8.3142724223466846
20
84.766205916725369
10
-8.3142724223466846
20
94.820131532723266
10
-24.984663225222377
20
94.820131532723266
10
-24.984663225222377
20
84.766205916725369
0
LWPOLYLINE
5
114
100
AcDbEntity
8
0
100
AcDbPolyline
90
4
70
1
43
0.0
10
-41.647605755680019
20
84.766205916725369
10
-41.647605755680019
20
94.820131532723266
10
-58.317996558555706
20
94.820131532723266
10
-58.317996558555706
20
84.766205916725369
0
CIRCLE
5
115
100
AcDbEntity
8
0
100
AcDbCircle
10
94.973148625305427
20
-93.093765416100297
30
0
40
1.0000000000000022
210
0
220
0
230
1
0
CIRCLE
5
116
100
AcDbEntity
8
0
100
AcDbCircle
10
94.973148625305427
20
-90.093765416100297
30
0
40
1.0000000000000022
210
0
220
0
230
1
0
CIRCLE
5
117
100
AcDbEntity
8
0
100
AcDbCircle
10
94.973148625305427
20
-87.093765416100283
30
0
40
1.0000000000000022
210
0
220
0
230
1
0
CIRCLE
5
118
100
AcDbEntity
8
0
100
AcDbCircle
10
-95.026851374694573
20
-87.093765416100283
30
0
40
1.0000000000000022
210
0
220
0
230
1
0
CIRCLE
5
119
100
AcDbEntity
8
0
100
AcDbCircle
10
-95.026851374694573
20
-93.093765416100297
30
0
40
1.0000000000000022
210
0
220
0
230
1
0
CIRCLE
5
120
100
AcDbEntity
8
0
100
AcDbCircle
10
-95.026851374694573
20
-90.093765416100297
30
0
40
1.0000000000000022
210
0
220
0
230
1
0
CIRCLE
5
121
100
AcDbEntity
8
0
100
AcDbCircle
10
94.973148625305427
20
-67.093765416100283
30
0
40
1.0000000000000022
210
0
220
0
230
1
0
CIRCLE
5
122
100
AcDbEntity
8
0
100
AcDbCircle
10
94.973148625305427
20
-73.093765416100297
30
0
40
1.0000000000000022
210
0
220
0
230
1
0
CIRCLE
5
123
100
AcDbEntity
8
0
100
AcDbCircle
10
94.973148625305427
20
-70.093765416100297
30
0
40
1.0000000000000022
210
0
220
0
230
1
0
CIRCLE
5
124
100
AcDbEntity
8
0
100
AcDbCircle
10
-95.026851374694573
20
-67.093765416100283
30
0
40
1.0000000000000022
210
0
220
0
230
1
0
CIRCLE
5
125
100
AcDbEntity
8
0
100
AcDbCircle
10
-95.026851374694573
20
-73.093765416100297
30
0
40
1.0000000000000022
210
0
220
0
230
1
0
CIRCLE
5
126
100
AcDbEntity
8
0
100
AcDbCircle
10
-95.026851374694573
20
-70.093765416100297
30
0
40
1.0000000000000022
210
0
220
0
230
1
0
CIRCLE
5
127
100
AcDbEntity
8
0
100
AcDbCircle
10
94.973148625305427
20
-47.093765416100283
30
0
40
1.0000000000000022
210
0
220
0
230
1
0
CIRCLE
5
128
100
AcDbEntity
8
0
100
AcDbCircle
10
94.973148625305427
20
-53.093765416100297
30
0
40
1.0000000000000022
210
0
220
0
230
1
0
CIRCLE
5
129
100
AcDbEntity
8
0
100
AcDbCircle
10
94.973148625305427
20
-50.093765416100297
30
0
40
1.0000000000000022
210
0
220
0
230
1
0
CIRCLE
5
130
100
AcDbEntity
8
0
100
AcDbCircle
10
-95.026851374694573
20
-47.093765416100283
30
0
40
1.0000000000000022
210
0
220
0
230
1
0
CIRCLE
5
131
100
AcDbEntity
8
0
100
AcDbCircle
10
-95.026851374694573
20
-53.093765416100297
30
0
40
1.0000000000000022
210
0
220
0
230
1
0
CIRCLE
5
132
100
AcDbEntity
8
0
100
AcDbCircle
10
-95.026851374694573
20
-50.093765416100297
30
0
40
1.0000000000000022
210
0
220
0
230
1
0
CIRCLE
5
133
100
AcDbEntity
8
0
100
AcDbCircle
10
94.973148625305427
20
-27.093765416100286
30
0
40
1.0000000000000022
210
0
220
0
230
1
0
CIRCLE
5
134
100
AcDbEntity
8
0
100
AcDbCircle
10
94.973148625305427
20
-33.093765416100297
30
0
40
1.0000000000000022
210
0
220
0
230
1
0
CIRCLE
5
135
100
AcDbEntity
8
0
100
AcDbCircle
10
94.973148625305427
20
-30.093765416100293
30
0
40
1.0000000000000022
210
0
220
0
230
1
0
CIRCLE
5
136
100
AcDbEntity
8
0
100
AcDbCircle
10
-95.026851374694573
20
-27.093765416100286
30
0
40
1.0000000000000022
210
0
220
0
230
1
0
CIRCLE
5
137
100
AcDbEntity
8
0
100
AcDbCircle
10
-95.026851374694573
20
-33.093765416100297
30
0
40
1.0000000000000022
210
0
220
0
230
1
0
CIRCLE
5
138
100
AcDbEntity
8
0
100
AcDbCircle
10
-95.026851374694573
20
-30.093765416100293
30
0
40
1.0000000000000022
210
0
220
0
230
1
0
CIRCLE
5
139
100
AcDbEntity
8
0
100
AcDbCircle
10
94.973148625305427
20
-7.0937654161002861
30
0
40
1.0000000000000022
210
0
220
0
230
1
0
CIRCLE
5
140
100
AcDbEntity
8
0
100
AcDbCircle
10
94.973148625305427
20
-13.0937654161003
30
0
40
1.0000000000000022
210
0
220
0
230
1
0
CIRCLE
5
141
100
AcDbEntity
8
0
100
AcDbCircle
10
94.973148625305427
20
-10.093765416100293
30
0
40
1.0000000000000022
210
0
220
0
230
1
0
CIRCLE
5
142
100
AcDbEntity
8
0
100
AcDbCircle
10
-95.026851374694573
20
-7.0937654161002861
30
0
40
1.0000000000000022
210
0
220
0
230
1
0
CIRCLE
5
143
100
AcDbEntity
8
0
100
AcDbCircle
10
-95.026851374694573
20
-13.0937654161003
30
0
40
1.0000000000000022
210
0
220
0
230
1
0
CIRCLE
5
144
100
AcDbEntity
8
0
100
AcDbCircle
10
-95.026851374694573
20
-10.093765416100293
30
0
40
1.0000000000000022
210
0
220
0
230
1
0
CIRCLE
5
145
100
AcDbEntity
8
0
100
AcDbCircle
10
94.973148625305427
20
12.906234583899714
30
0
40
1.0000000000000022
210
0
220
0
230
1
0
CIRCLE
5
146
100
AcDbEntity
8
0
100
AcDbCircle
10
94.973148625305427
20
6.9062345838996997
30
0
40
1.0000000000000022
210
0
220
0
230
1
0
CIRCLE
5
147
100
AcDbEntity
8
0
100
AcDbCircle
10
94.973148625305427
20
9.9062345838997068
30
0
40
1.0000000000000022
210
0
220
0
230
1
0
CIRCLE
5
148
100
AcDbEntity
8
0
100
AcDbCircle
10
-95.026851374694573
20
12.906234583899714
30
0
40
1.0000000000000022
210
0
220
0
230
1
0
CIRCLE
5
149
100
AcDbEntity
8
0
100
AcDbCircle
10
-95.026851374694573
20
6.9062345838996997
30
0
40
1.0000000000000022
210
0
220
0
230
1
0
CIRCLE
5
150
100
AcDbEntity
8
0
100
AcDbCircle
10
-95.026851374694573
20
9.9062345838997068
30
0
40
1.0000000000000022
210
0
220
0
230
1
0
CIRCLE
5
151
100
AcDbEntity
8
0
100
AcDbCircle
10
94.973148625305427
20
32.906234583899717
30
0
40
1.0000000000000022
210
0
220
0
230
1
0
CIRCLE
5
152
100
AcDbEntity
8
0
100
AcDbCircle
10
94.973148625305427
20
26.9062345838997
30
0
40
1.0000000000000022
210
0
220
0
230
1
0
CIRCLE
5
153
100
AcDbEntity
8
0
100
AcDbCircle
10
94.973148625305427
20
29.906234583899707
30
0
40
1.0000000000000022
210
0
220
0
230
1
0
CIRCLE
5
154
100
AcDbEntity
8
0
100
AcDbCircle
10
-95.026851374694573
20
32.906234583899717
30
0
40
1.0000000000000022
210
0
220
0
230
1
0
CIRCLE
5
155
100
AcDbEntity
8
0
100
AcDbCircle
10
-95.026851374694573
20
26.9062345838997
30
0
40
1.0000000000000022
210
0
220
0
230
1
0
CIRCLE
5
156
100
AcDbEntity
8
0
100
AcDbCircle
10
-95.026851374694573
20
29.906234583899707
30
0
40
1.0000000000000022
210
0
220
0
230
1
0
CIRCLE
5
157
100
AcDbEntity
8
0
100
AcDbCircle
10
94.973148625305427
20
52.906234583899717
30
0
40
1.0000000000000022
210
0
220
0
230
1
0
CIRCLE
5
158
100
AcDbEntity
8
0
100
AcDbCircle
10
94.973148625305427
20
46.906234583899703
30
0
40
1.0000000000000022
210
0
220
0
230
1
0
CIRCLE
5
159
100
AcDbEntity
8
0
100
AcDbCircle
10
94.973148625305427
20
49.906234583899703
30
0
40
1.0000000000000022
210
0
220
0
230
1
0
CIRCLE
5
160
100
AcDbEntity
8
0
100
AcDbCircle
10
-95.026851374694573
20
52.906234583899717
30
0
40
1.0000000000000022
210
0
220
0
230
1
0
CIRCLE
5
161
100
AcDbEntity
8
0
100
AcDbCircle
10
-95.026851374694573
20
46.906234583899703
30
0
40
1.0000000000000022
210
0
220
0
230
1
0
CIRCLE
5
162
100
AcDbEntity
8
0
100
AcDbCircle
10
-95.026851374694573
20
49.906234583899703
30
0
40
1.0000000000000022
210
0
220
0
230
1
0
CIRCLE
5
163
100
AcDbEntity
8
0
100
AcDbCircle
10
94.973148625305427
20
72.906234583899717
30
0
40
1.0000000000000022
210
0
220
0
230
1
0
CIRCLE
5
164
100
AcDbEntity
8
0
100
AcDbCircle
10
94.973148625305427
20
66.906234583899703
30
0
40
1.0000000000000022
210
0
220
0
230
1
0
CIRCLE
5
165
100
AcDbEntity
8
0
100
AcDbCircle
10
94.973148625305427
20
69.906234583899703
30
0
40
1.0000000000000022
210
0
220
0
230
1
0
CIRCLE
5
166
100
AcDbEntity
8
0
100
AcDbCircle
10
-95.026851374694573
20
72.906234583899717
30
0
40
1.0000000000000022
210
0
220
0
230
1
0
CIRCLE
5
167
100
AcDbEntity
8
0
100
AcDbCircle
10
-95.026851374694573
20
66.906234583899703
30
0
40
1.0000000000000022
210
0
220
0
230
1
0
CIRCLE
5
168
100
AcDbEntity
8
0
100
AcDbCircle
10
-95.026851374694573
20
69.906234583899703
30
0
40
1.0000000000000022
210
0
220
0
230
1
0
CIRCLE
5
169
100
AcDbEntity
8
0
100
AcDbCircle
10
61.973148625305413
20
86.906234583899703
30
0
40
1.0000000000000022
210
0
220
0
230
1
0
CIRCLE
5
170
100
AcDbEntity
8
0
100
AcDbCircle
10
61.973148625305413
20
89.906234583899703
30
0
40
1.0000000000000022
210
0
220
0
230
1
0
CIRCLE
5
171
100
AcDbEntity
8
0
100
AcDbCircle
10
61.973148625305413
20
92.906234583899717
30
0
40
1.0000000000000022
210
0
220
0
230
1
0
CIRCLE
5
172
100
AcDbEntity
8
0
100
AcDbCircle
10
28.639815291972081
20
92.906234583899717
30
0
40
1.0000000000000022
210
0
220
0
230
1
0
CIRCLE
5
173
100
AcDbEntity
8
0
100
AcDbCircle
10
28.639815291972081
20
86.906234583899703
30
0
40
1.0000000000000022
210
0
220
0
230
1
0
CIRCLE
5
174
100
AcDbEntity
8
0
100
AcDbCircle
10
28.639815291972081
20
89.906234583899703
30
0
40
1.0000000000000022
210
0
220
0
230
1
0
CIRCLE
5
175
100
AcDbEntity
8
0
100
AcDbCircle
10
-4.6935180413612532
20
92.906234583899717
30
0
40
1.0000000000000022
210
0
220
0
230
1
0
CIRCLE
5
176
100
AcDbEntity
8
0
100
AcDbCircle
10
-4.6935180413612532
20
86.906234583899703
30
0
40
1.0000000000000022
210
0
220
0
230
1
0
CIRCLE
5
177
100
AcDbEntity
8
0
100
AcDbCircle
10
-4.6935180413612532
20
89.906234583899703
30
0
40
1.0000000000000022
210
0
220
0
230
1
0
CIRCLE
5
178
100
AcDbEntity
8
0
100
AcDbCircle
10
-38.026851374694587
20
92.906234583899717
30
0
40
1.0000000000000022
210
0
220
0
230
1
0
CIRCLE
5
179
100
AcDbEntity
8
0
100
AcDbCircle
10
-38.026851374694587
20
86.906234583899703
30
0
40
1.0000000000000022
210
0
220
0
230
1
0
CIRCLE
5
180
100
AcDbEntity
8
0
100
AcDbCircle
10
-38.026851374694587
20
89.906234583899703
30
0
40
1.0000000000000022
210
0
220
0
230
1
0
CIRCLE
5
181
100
AcDbEntity
8
0
100
AcDbCircle
10
37.973148625305413
20
89.906234583899703
30
0
40
1.0000000000000022
210
0
220
0
230
1
0
CIRCLE
5
182
100
AcDbEntity
8
0
100
AcDbCircle
10
37.973148625305413
20
92.906234583899717
30
0
40
1.0000000000000022
210
0
220
0
230
1
0
CIRCLE
5
183
100
AcDbEntity
8
0
100
AcDbCircle
10
37.973148625305413
20
86.906234583899703
30
0
40
1.0000000000000022
210
0
220
0
230
1
0
CIRCLE
5
184
100
AcDbEntity
8
0
100
AcDbCircle
10
4.6398152919720781
20
86.906234583899703
30
0
40
1.0000000000000022
210
0
220
0
230
1
0
CIRCLE
5
185
100
AcDbEntity
8
0
100
AcDbCircle
10
4.6398152919720781
20
89.906234583899703
30
0
40
1.0000000000000022
210
0
220
0
230
1
0
CIRCLE
5
186
100
AcDbEntity
8
0
100
AcDbCircle
10
4.6398152919720781
20
92.906234583899717
30
0
40
1.0000000000000022
210
0
220
0
230
1
0
CIRCLE
5
187
100
AcDbEntity
8
0
100
AcDbCircle
10
-28.693518041361258
20
86.906234583899703
30
0
40
1.0000000000000022
210
0
220
0
230
1
0
CIRCLE
5
188
100
AcDbEntity
8
0
100
AcDbCircle
10
-28.693518041361258
20
89.906234583899703
30
0
40
1.0000000000000022
210
0
220
0
230
1
0
CIRCLE
5
189
100
AcDbEntity
8
0
100
AcDbCircle
10
-28.693518041361258
20
92.906234583899717
30
0
40
1.0000000000000022
210
0
220
0
230
1
0
CIRCLE
5
190
100
AcDbEntity
8
0
100
AcDbCircle
10
-62.026851374694587
20
86.906234583899703
30
0
40
1.0000000000000022
210
0
220
0
230
1
0
CIRCLE
5
191
100
AcDbEntity
8
0
100
AcDbCircle
10
-62.026851374694587
20
89.906234583899703
30
0
40
1.0000000000000022
210
0
220
0
230
1
0
CIRCLE
5
192
100
AcDbEntity
8
0
100
AcDbCircle
10
-62.026851374694587
20
92.906234583899717
30
0
40
1.0000000000000022
210
0
220
0
230
1
0
ENDSEC
0
SECTION
2
OBJECTS
0
DICTIONARY
5
C
100
AcDbDictionary
3
ACAD_GROUP
350
D
3
ACAD_MLINESTYLE
350
17
0
DICTIONARY
5
D
100
AcDbDictionary
0
DICTIONARY
5
1A
330
C
100
AcDbDictionary
0
DICTIONARY
5
17
100
AcDbDictionary
0
ENDSEC
0
EOF
