0
SECTION
2
HEADER
9
$INSUNITS
70
4
9
$ACADVER
1
AC1014
9
$HANDSEED
5
FFFF
0
ENDSEC
0
SECTION
2
TABLES
0
TABLE
2
VPORT
5
8
100
AcDbSymbolTable
0
ENDTAB
0
TABLE
2
LTYPE
5
5
100
AcDbSymbolTable
0
LTYPE
5
14
100
AcDbSymbolTableRecord
100
AcDbLinetypeTableRecord
2
BYBLOCK
70
0
0
LTYPE
5
15
100
AcDbSymbolTableRecord
100
AcDbLinetypeTableRecord
2
BYLAYER
70
0
0
ENDTAB
0
TABLE
2
LAYER
5
2
100
AcDbSymbolTable
70
2
0
LAYER
5
50
100
AcDbSymbolTableRecord
100
AcDbLayerTableRecord
2
0
70
0
6
CONTINUOUS
0
ENDTAB
0
TABLE
2
STYLE
5
3
100
AcDbSymbolTable
70
1
0
STYLE
5
11
100
AcDbSymbolTableRecord
100
AcDbTextStyleTableRecord
2
STANDARD
70
0
0
ENDTAB
0
TABLE
2
VIEW
5
6
100
AcDbSymbolTable
70
0
0
ENDTAB
0
TABLE
2
UCS
5
7
100
AcDbSymbolTable
70
0
0
ENDTAB
0
TABLE
2
APPID
5
9
100
AcDbSymbolTable
70
2
0
APPID
5
12
100
AcDbSymbolTableRecord
100
AcDbRegAppTableRecord
2
ACAD
70
0
0
ENDTAB
0
TABLE
2
DIMSTYLE
5
A
100
AcDbSymbolTable
70
1
0
ENDTAB
0
TABLE
2
BLOCK_RECORD
5
1
100
AcDbSymbolTable
70
1
0
BLOCK_RECORD
5
1F
100
AcDbSymbolTableRecord
100
AcDbBlockTableRecord
2
*MODEL_SPACE
0
BLOCK_RECORD
5
1B
100
AcDbSymbolTableRecord
100
AcDbBlockTableRecord
2
*PAPER_SPACE
0
ENDTAB
0
ENDSEC
0
SECTION
2
BLOCKS
0
BLOCK
5
20
100
AcDbEntity
100
AcDbBlockBegin
2
*MODEL_SPACE
0
ENDBLK
5
21
100
AcDbEntity
100
AcDbBlockEnd
0
BLOCK
5
1C
100
AcDbEntity
100
AcDbBlockBegin
2
*PAPER_SPACE
0
ENDBLK
5
1D
100
AcDbEntity
100
AcDbBlockEnd
0
ENDSEC
0
SECTION
2
ENTITIES
0
LWPOLYLINE
5
100
100
AcDbEntity
8
0
100
AcDbPolyline
90
52
70
1
43
0.0
10
-96.000000001169781
20
-15.033068910311339
10
-96.000000001169781
20
-2.0330689103113473
10
-93.000000001171117
20
-2.0330689103113473
10
-93.000000001171117
20
-10.000000149011601
10
-90.000000001171117
20
-10.000000149011601
10
-90.000000001171117
20
-2.0330689103113473
10
-76.331000001171091
20
-2.0330689103113486
10
-76.331000001171091
20
-10.000000149011601
10
-73.331000001171091
20
-10.000000149011601
10
-73.331000001171077
20
-2.0330689103113482
10
-59.662000001171066
20
-2.0330689103113486
10
-59.66200000117108
20
-10.000000149011601
10
-56.662000001171073
20
-10.000000149011601
10
-56.662000001171066
20
-2.0330689103113482
10
-42.993000001171083
20
-2.0330689103113486
10
-42.993000001171097
20
-10.000000149011601
10
-39.99300000117109
20
-10.000000149011601
10
-39.993000001171083
20
-2.0330689103113482
10
-26.32400000117109
20
-2.0330689103113486
10
-26.324000001171093
20
-10.000000149011601
10
-23.324000001171086
20
-10.000000149011601
10
-23.324000001171083
20
-2.0330689103113482
10
-9.6550000011710893
20
-2.0330689103113486
10
-9.6550000011710946
20
-10.000000149011601
10
-6.6550000011710875
20
-10.000000149011601
10
-6.655000001171083
20
-2.0330689103113482
10
7.0139999988289015
20
-2.0330689103113486
10
7.013999998828897
20
-10.000000149011601
10
10.013999998828902
20
-10.000000149011601
10
10.013999998828906
20
-2.0330689103113482
10
23.682999998828901
20
-2.0330689103113486
10
23.682999998828898
20
-10.000000149011601
10
26.682999998828905
20
-10.000000149011601
10
26.682999998828908
20
-2.0330689103113482
10
40.351999998828909
20
-2.0330689103113486
10
40.351999998828902
20
-10.000000149011601
10
43.351999998828902
20
-10.000000149011601
10
43.351999998828916
20
-2.0330689103113482
10
57.020999998828906
20
-2.0330689103113486
10
57.020999998828898
20
-10.000000149011601
10
60.020999998828906
20
-10.000000149011601
10
60.020999998828913
20
-2.0330689103113482
10
73.689999998828895
20
-2.0330689103113473
10
73.689999998828895
20
-10.000000149011601
10
76.68999999882891
20
-10.000000149011601
10
76.689999998828895
20
-2.0330689103113473
10
90.358999998828892
20
-2.0330689103113486
10
90.358999998828878
20
-10.000000149011601
10
93.358999998828892
20
-10.000000149011601
10
93.358999998828907
20
-2.0330689103113482
10
115.99999999883025
20
-2.0330689103113464
10
115.99999999883025
20
-15.033068910311345
0
ENDSEC
0
SECTION
2
OBJECTS
0
DICTIONARY
5
C
100
AcDbDictionary
3
ACAD_GROUP
350
D
3
ACAD_MLINESTYLE
350
17
0
DICTIONARY
5
D
100
AcDbDictionary
0
DICTIONARY
5
1A
330
C
100
AcDbDictionary
0
DICTIONARY
5
17
100
AcDbDictionary
0
ENDSEC
0
EOF
