0
SECTION
2
HEADER
9
$INSUNITS
70
4
9
$ACADVER
1
AC1014
9
$HANDSEED
5
FFFF
0
ENDSEC
0
SECTION
2
TABLES
0
TABLE
2
VPORT
5
8
100
AcDbSymbolTable
0
ENDTAB
0
TABLE
2
LTYPE
5
5
100
AcDbSymbolTable
0
LTYPE
5
14
100
AcDbSymbolTableRecord
100
AcDbLinetypeTableRecord
2
BYBLOCK
70
0
0
LTYPE
5
15
100
AcDbSymbolTableRecord
100
AcDbLinetypeTableRecord
2
BYLAYER
70
0
0
ENDTAB
0
TABLE
2
LAYER
5
2
100
AcDbSymbolTable
70
2
0
LAYER
5
50
100
AcDbSymbolTableRecord
100
AcDbLayerTableRecord
2
0
70
0
6
CONTINUOUS
0
ENDTAB
0
TABLE
2
STYLE
5
3
100
AcDbSymbolTable
70
1
0
STYLE
5
11
100
AcDbSymbolTableRecord
100
AcDbTextStyleTableRecord
2
STANDARD
70
0
0
ENDTAB
0
TABLE
2
VIEW
5
6
100
AcDbSymbolTable
70
0
0
ENDTAB
0
TABLE
2
UCS
5
7
100
AcDbSymbolTable
70
0
0
ENDTAB
0
TABLE
2
APPID
5
9
100
AcDbSymbolTable
70
2
0
APPID
5
12
100
AcDbSymbolTableRecord
100
AcDbRegAppTableRecord
2
ACAD
70
0
0
ENDTAB
0
TABLE
2
DIMSTYLE
5
A
100
AcDbSymbolTable
70
1
0
ENDTAB
0
TABLE
2
BLOCK_RECORD
5
1
100
AcDbSymbolTable
70
1
0
BLOCK_RECORD
5
1F
100
AcDbSymbolTableRecord
100
AcDbBlockTableRecord
2
*MODEL_SPACE
0
BLOCK_RECORD
5
1B
100
AcDbSymbolTableRecord
100
AcDbBlockTableRecord
2
*PAPER_SPACE
0
ENDTAB
0
ENDSEC
0
SECTION
2
BLOCKS
0
BLOCK
5
20
100
AcDbEntity
100
AcDbBlockBegin
2
*MODEL_SPACE
0
ENDBLK
5
21
100
AcDbEntity
100
AcDbBlockEnd
0
BLOCK
5
1C
100
AcDbEntity
100
AcDbBlockBegin
2
*PAPER_SPACE
0
ENDBLK
5
1D
100
AcDbEntity
100
AcDbBlockEnd
0
ENDSEC
0
SECTION
2
ENTITIES
0
LWPOLYLINE
5
100
100
AcDbEntity
8
0
100
AcDbPolyline
90
52
70
1
43
0.0
10
-116.00000000117005
20
-15.033068910311346
10
-116.00000000117005
20
-2.0330689103113491
10
-93.000000001171387
20
-2.0330689103113486
10
-93.000000001171387
20
-10.000000149011603
10
-90.000000001171387
20
-10.000000149011603
10
-90.000000001171387
20
-2.0330689103113491
10
-76.331000001171361
20
-2.03306891031135
10
-76.331000001171361
20
-10.000000149011603
10
-73.331000001171361
20
-10.000000149011603
10
-73.331000001171347
20
-2.0330689103113495
10
-59.662000001171336
20
-2.03306891031135
10
-59.662000001171343
20
-10.000000149011603
10
-56.662000001171336
20
-10.000000149011603
10
-56.662000001171329
20
-2.0330689103113495
10
-42.993000001171353
20
-2.03306891031135
10
-42.99300000117136
20
-10.000000149011603
10
-39.993000001171353
20
-10.000000149011603
10
-39.993000001171353
20
-2.0330689103113495
10
-26.324000001171356
20
-2.03306891031135
10
-26.324000001171363
20
-10.000000149011603
10
-23.324000001171356
20
-10.000000149011603
10
-23.324000001171349
20
-2.0330689103113495
10
-9.6550000011713557
20
-2.03306891031135
10
-9.655000001171361
20
-10.000000149011603
10
-6.6550000011713539
20
-10.000000149011603
10
-6.6550000011713495
20
-2.0330689103113495
10
7.013999998828635
20
-2.03306891031135
10
7.0139999988286306
20
-10.000000149011603
10
10.013999998828636
20
-10.000000149011603
10
10.013999998828639
20
-2.0330689103113495
10
23.682999998828635
20
-2.03306891031135
10
23.682999998828631
20
-10.000000149011603
10
26.682999998828638
20
-10.000000149011603
10
26.682999998828642
20
-2.0330689103113495
10
40.351999998828639
20
-2.03306891031135
10
40.351999998828632
20
-10.000000149011603
10
43.351999998828639
20
-10.000000149011603
10
43.351999998828646
20
-2.0330689103113495
10
57.020999998828643
20
-2.03306891031135
10
57.020999998828628
20
-10.000000149011603
10
60.020999998828643
20
-10.000000149011603
10
60.02099999882865
20
-2.0330689103113495
10
73.689999998828625
20
-2.0330689103113486
10
73.689999998828625
20
-10.000000149011603
10
76.68999999882864
20
-10.000000149011603
10
76.689999998828625
20
-2.0330689103113486
10
90.358999998828637
20
-2.03306891031135
10
90.358999998828608
20
-10.000000149011603
10
93.358999998828622
20
-10.000000149011603
10
93.358999998828637
20
-2.0330689103113491
10
115.99999999882998
20
-2.0330689103113486
10
115.99999999882998
20
-15.033068910311346
0
ENDSEC
0
SECTION
2
OBJECTS
0
DICTIONARY
5
C
100
AcDbDictionary
3
ACAD_GROUP
350
D
3
ACAD_MLINESTYLE
350
17
0
DICTIONARY
5
D
100
AcDbDictionary
0
DICTIONARY
5
1A
330
C
100
AcDbDictionary
0
DICTIONARY
5
17
100
AcDbDictionary
0
ENDSEC
0
EOF
