0
SECTION
2
HEADER
9
$INSUNITS
70
4
9
$ACADVER
1
AC1014
9
$HANDSEED
5
FFFF
0
ENDSEC
0
SECTION
2
TABLES
0
TABLE
2
VPORT
5
8
100
AcDbSymbolTable
0
ENDTAB
0
TABLE
2
LTYPE
5
5
100
AcDbSymbolTable
0
LTYPE
5
14
100
AcDbSymbolTableRecord
100
AcDbLinetypeTableRecord
2
BYBLOCK
70
0
0
LTYPE
5
15
100
AcDbSymbolTableRecord
100
AcDbLinetypeTableRecord
2
BYLAYER
70
0
0
ENDTAB
0
TABLE
2
LAYER
5
2
100
AcDbSymbolTable
70
2
0
LAYER
5
50
100
AcDbSymbolTableRecord
100
AcDbLayerTableRecord
2
0
70
0
6
CONTINUOUS
0
ENDTAB
0
TABLE
2
STYLE
5
3
100
AcDbSymbolTable
70
1
0
STYLE
5
11
100
AcDbSymbolTableRecord
100
AcDbTextStyleTableRecord
2
STANDARD
70
0
0
ENDTAB
0
TABLE
2
VIEW
5
6
100
AcDbSymbolTable
70
0
0
ENDTAB
0
TABLE
2
UCS
5
7
100
AcDbSymbolTable
70
0
0
ENDTAB
0
TABLE
2
APPID
5
9
100
AcDbSymbolTable
70
2
0
APPID
5
12
100
AcDbSymbolTableRecord
100
AcDbRegAppTableRecord
2
ACAD
70
0
0
ENDTAB
0
TABLE
2
DIMSTYLE
5
A
100
AcDbSymbolTable
70
1
0
ENDTAB
0
TABLE
2
BLOCK_RECORD
5
1
100
AcDbSymbolTable
70
1
0
BLOCK_RECORD
5
1F
100
AcDbSymbolTableRecord
100
AcDbBlockTableRecord
2
*MODEL_SPACE
0
BLOCK_RECORD
5
1B
100
AcDbSymbolTableRecord
100
AcDbBlockTableRecord
2
*PAPER_SPACE
0
ENDTAB
0
ENDSEC
0
SECTION
2
BLOCKS
0
BLOCK
5
20
100
AcDbEntity
100
AcDbBlockBegin
2
*MODEL_SPACE
0
ENDBLK
5
21
100
AcDbEntity
100
AcDbBlockEnd
0
BLOCK
5
1C
100
AcDbEntity
100
AcDbBlockBegin
2
*PAPER_SPACE
0
ENDBLK
5
1D
100
AcDbEntity
100
AcDbBlockEnd
0
ENDSEC
0
SECTION
2
ENTITIES
0
LWPOLYLINE
5
100
100
AcDbEntity
8
0
100
AcDbPolyline
90
60
70
1
43
0.0
10
83.895022363640251
20
-2.0330689103113544
10
83.895022363640251
20
-10.000000149011612
10
78.499998487529695
20
-10.000000149011612
10
78.499998487529666
20
-15.033068910311369
10
75.499998487529638
20
-15.033068910311385
42
0.24908882997463816
10
64.49999853223315
20
-15.033068910311364
10
61.49999853223315
20
-15.033068910311364
10
61.499998532233178
20
-10.000000149011612
10
58.499998487529695
20
-10.000000149011612
10
58.499998487529659
20
-15.033068910311369
10
55.499998487529638
20
-15.033068910311385
42
0.24908882997463816
10
44.49999853223315
20
-15.033068910311364
10
41.49999853223315
20
-15.033068910311364
10
41.499998532233178
20
-10.000000149011612
10
38.499998487529695
20
-10.000000149011612
10
38.499998487529659
20
-15.033068910311368
10
35.499998487529624
20
-15.033068910311382
42
0.24908882997463794
10
24.49999853223315
20
-15.033068910311364
10
21.499998532233153
20
-15.033068910311364
10
21.499998532233178
20
-10.000000149011612
10
18.499998487529698
20
-10.000000149011612
10
18.499998487529666
20
-15.033068910311368
10
15.499998487529636
20
-15.033068910311385
42
0.24908882997463819
10
4.4999985322331515
20
-15.033068910311364
10
1.499998532233151
20
-15.033068910311364
10
1.4999985322331821
20
-10.000000149011612
10
-1.5000015124703014
20
-10.000000149011612
10
-1.5000015124703352
20
-15.033068910311369
10
-4.500001512470365
20
-15.03306891031138
42
0.24908882997463799
10
-15.500001467766849
20
-15.033068910311364
10
-18.50000146776685
20
-15.033068910311364
10
-18.500001467766818
20
-10.000000149011612
10
-21.500001512470305
20
-10.000000149011612
10
-21.500001512470341
20
-15.033068910311368
10
-24.500001512470373
20
-15.033068910311382
42
0.24908882997463794
10
-35.50000146776685
20
-15.033068910311364
10
-38.50000146776685
20
-15.033068910311364
10
-38.500001467766822
20
-10.000000149011612
10
-41.500001512470305
20
-10.000000149011612
10
-41.500001512470334
20
-15.033068910311369
10
-44.500001512470362
20
-15.033068910311385
42
0.24908882997463816
10
-55.50000146776685
20
-15.033068910311364
10
-58.50000146776685
20
-15.033068910311364
10
-58.500001467766822
20
-10.000000149011612
10
-61.500001512470305
20
-10.000000149011612
10
-61.500001512470334
20
-15.033068910311369
10
-64.500001512470362
20
-15.033068910311385
42
0.24908882997463816
10
-75.50000146776685
20
-15.033068910311364
10
-78.50000146776685
20
-15.033068910311364
10
-78.500001467766822
20
-10.000000149011612
10
-81.500001512470291
20
-10.000000149011612
10
-81.500001512470334
20
-15.033068910311361
10
-84.500001512470362
20
-15.033068910311364
42
0.24908882997463766
10
-95.500001467766836
20
-15.033068910311364
10
-98.50000146776685
20
-15.033068910311364
10
-98.500001467766808
20
-10.000000149011612
10
-101.50000151247029
20
-10.000000149011612
10
-101.50000151247029
20
-15.033068910311354
10
-116.10497763635978
20
-15.033068910311354
10
-116.10497763635978
20
-2.0330689103113548
0
ENDSEC
0
SECTION
2
OBJECTS
0
DICTIONARY
5
C
100
AcDbDictionary
3
ACAD_GROUP
350
D
3
ACAD_MLINESTYLE
350
17
0
DICTIONARY
5
D
100
AcDbDictionary
0
DICTIONARY
5
1A
330
C
100
AcDbDictionary
0
DICTIONARY
5
17
100
AcDbDictionary
0
ENDSEC
0
EOF
