0
SECTION
2
HEADER
9
$INSUNITS
70
4
9
$ACADVER
1
AC1014
9
$HANDSEED
5
FFFF
0
ENDSEC
0
SECTION
2
TABLES
0
TABLE
2
VPORT
5
8
100
AcDbSymbolTable
0
ENDTAB
0
TABLE
2
LTYPE
5
5
100
AcDbSymbolTable
0
LTYPE
5
14
100
AcDbSymbolTableRecord
100
AcDbLinetypeTableRecord
2
BYBLOCK
70
0
0
LTYPE
5
15
100
AcDbSymbolTableRecord
100
AcDbLinetypeTableRecord
2
BYLAYER
70
0
0
ENDTAB
0
TABLE
2
LAYER
5
2
100
AcDbSymbolTable
70
2
0
LAYER
5
50
100
AcDbSymbolTableRecord
100
AcDbLayerTableRecord
2
0
70
0
6
CONTINUOUS
0
ENDTAB
0
TABLE
2
STYLE
5
3
100
AcDbSymbolTable
70
1
0
STYLE
5
11
100
AcDbSymbolTableRecord
100
AcDbTextStyleTableRecord
2
STANDARD
70
0
0
ENDTAB
0
TABLE
2
VIEW
5
6
100
AcDbSymbolTable
70
0
0
ENDTAB
0
TABLE
2
UCS
5
7
100
AcDbSymbolTable
70
0
0
ENDTAB
0
TABLE
2
APPID
5
9
100
AcDbSymbolTable
70
2
0
APPID
5
12
100
AcDbSymbolTableRecord
100
AcDbRegAppTableRecord
2
ACAD
70
0
0
ENDTAB
0
TABLE
2
DIMSTYLE
5
A
100
AcDbSymbolTable
70
1
0
ENDTAB
0
TABLE
2
BLOCK_RECORD
5
1
100
AcDbSymbolTable
70
1
0
BLOCK_RECORD
5
1F
100
AcDbSymbolTableRecord
100
AcDbBlockTableRecord
2
*MODEL_SPACE
0
BLOCK_RECORD
5
1B
100
AcDbSymbolTableRecord
100
AcDbBlockTableRecord
2
*PAPER_SPACE
0
ENDTAB
0
ENDSEC
0
SECTION
2
BLOCKS
0
BLOCK
5
20
100
AcDbEntity
100
AcDbBlockBegin
2
*MODEL_SPACE
0
ENDBLK
5
21
100
AcDbEntity
100
AcDbBlockEnd
0
BLOCK
5
1C
100
AcDbEntity
100
AcDbBlockBegin
2
*PAPER_SPACE
0
ENDBLK
5
1D
100
AcDbEntity
100
AcDbBlockEnd
0
ENDSEC
0
SECTION
2
ENTITIES
0
LWPOLYLINE
5
100
100
AcDbEntity
8
0
100
AcDbPolyline
90
68
70
1
43
0.0
10
-116.10497763635934
20
-15.033068910311354
10
-116.10497763635934
20
-2.0330689103113548
10
115.89502236364069
20
-2.0330689103113531
10
115.89502236364069
20
-15.033068910311354
10
101.49999853223363
20
-15.033068910311354
10
101.49999853223363
20
-10.000000149011612
10
98.499998487530149
20
-10.000000149011612
10
98.499998487530121
20
-15.033068910311364
10
95.499998487530064
20
-15.033068910311375
42
0.24908882997463766
10
84.499998532233604
20
-15.033068910311364
10
81.499998532233604
20
-15.033068910311364
10
81.499998532233633
20
-10.000000149011612
10
78.499998487530135
20
-10.000000149011612
10
78.499998487530107
20
-15.033068910311369
10
75.499998487530078
20
-15.033068910311385
42
0.24908882997463816
10
64.49999853223359
20
-15.033068910311364
10
61.499998532233597
20
-15.033068910311364
10
61.499998532233626
20
-10.000000149011612
10
58.499998487530142
20
-10.000000149011612
10
58.499998487530107
20
-15.033068910311369
10
55.499998487530078
20
-15.033068910311385
42
0.24908882997463816
10
44.499998532233597
20
-15.033068910311364
10
41.499998532233597
20
-15.033068910311364
10
41.499998532233626
20
-10.000000149011612
10
38.499998487530142
20
-10.000000149011612
10
38.499998487530107
20
-15.033068910311368
10
35.499998487530071
20
-15.033068910311382
42
0.24908882997463794
10
24.499998532233597
20
-15.033068910311364
10
21.499998532233597
20
-15.033068910311364
10
21.499998532233626
20
-10.000000149011612
10
18.499998487530142
20
-10.000000149011612
10
18.49999848753011
20
-15.033068910311368
10
15.49999848753008
20
-15.033068910311385
42
0.24908882997463819
10
4.4999985322335947
20
-15.033068910311364
10
1.4999985322335947
20
-15.033068910311364
10
1.4999985322336258
20
-10.000000149011612
10
-1.5000015124698578
20
-10.000000149011612
10
-1.5000015124698929
20
-15.033068910311368
10
-4.5000015124699253
20
-15.033068910311385
42
0.24908882997463802
10
-15.500001467766404
20
-15.033068910311364
10
-18.500001467766406
20
-15.033068910311364
10
-18.500001467766374
20
-10.000000149011612
10
-21.500001512469858
20
-10.000000149011612
10
-21.500001512469893
20
-15.033068910311368
10
-24.500001512469929
20
-15.033068910311382
42
0.24908882997463794
10
-35.500001467766403
20
-15.033068910311364
10
-38.500001467766403
20
-15.033068910311364
10
-38.500001467766374
20
-10.000000149011612
10
-41.500001512469858
20
-10.000000149011612
10
-41.500001512469886
20
-15.033068910311369
10
-44.500001512469922
20
-15.033068910311385
42
0.24908882997463816
10
-55.500001467766403
20
-15.033068910311364
10
-58.500001467766403
20
-15.033068910311364
10
-58.500001467766374
20
-10.000000149011612
10
-61.500001512469858
20
-10.000000149011612
10
-61.500001512469886
20
-15.033068910311369
10
-64.500001512469922
20
-15.033068910311385
42
0.24908882997463816
10
-75.50000146776641
20
-15.033068910311364
10
-78.500001467766396
20
-15.033068910311364
10
-78.500001467766381
20
-10.000000149011612
10
-81.500001512469851
20
-10.000000149011612
10
-81.500001512469879
20
-15.033068910311362
10
-84.500001512469908
20
-15.033068910311364
42
0.24908882997463766
10
-95.500001467766396
20
-15.033068910311364
10
-98.500001467766396
20
-15.033068910311364
10
-98.500001467766367
20
-10.000000149011612
10
-101.50000151246985
20
-10.000000149011612
10
-101.50000151246985
20
-15.033068910311354
0
ENDSEC
0
SECTION
2
OBJECTS
0
DICTIONARY
5
C
100
AcDbDictionary
3
ACAD_GROUP
350
D
3
ACAD_MLINESTYLE
350
17
0
DICTIONARY
5
D
100
AcDbDictionary
0
DICTIONARY
5
1A
330
C
100
AcDbDictionary
0
DICTIONARY
5
17
100
AcDbDictionary
0
ENDSEC
0
EOF
