<?xml version="1.0" encoding="UTF-8" standalone="no"?>
<svg
   xmlns:dc="http://purl.org/dc/elements/1.1/"
   xmlns:cc="http://creativecommons.org/ns#"
   xmlns:rdf="http://www.w3.org/1999/02/22-rdf-syntax-ns#"
   xmlns:svg="http://www.w3.org/2000/svg"
   xmlns="http://www.w3.org/2000/svg"
   xmlns:sodipodi="http://sodipodi.sourceforge.net/DTD/sodipodi-0.dtd"
   xmlns:inkscape="http://www.inkscape.org/namespaces/inkscape"
   width="756.90552"
   height="50.133858"
   version="1.1"
   id="svg5220"
   sodipodi:docname="Vertical-2x.svg"
   inkscape:version="0.92.4 (5da689c313, 2019-01-14)">
  <metadata
     id="metadata5224">
    <rdf:RDF>
      <cc:Work
         rdf:about="">
        <dc:format>image/svg+xml</dc:format>
        <dc:type
           rdf:resource="http://purl.org/dc/dcmitype/StillImage" />
        <dc:title></dc:title>
      </cc:Work>
    </rdf:RDF>
  </metadata>
  <sodipodi:namedview
     pagecolor="#ffffff"
     bordercolor="#666666"
     borderopacity="1"
     objecttolerance="10"
     gridtolerance="10"
     guidetolerance="10"
     inkscape:pageopacity="0"
     inkscape:pageshadow="2"
     inkscape:window-width="1920"
     inkscape:window-height="1017"
     id="namedview5222"
     showgrid="false"
     fit-margin-top="0"
     fit-margin-left="0"
     fit-margin-right="0"
     fit-margin-bottom="0"
     inkscape:zoom="0.21024131"
     inkscape:cx="243.99568"
     inkscape:cy="618.57776"
     inkscape:window-x="1912"
     inkscape:window-y="-8"
     inkscape:window-maximized="1"
     inkscape:current-layer="g5218" />
  <desc
     id="desc5200">D:\Downloads\Vertical-2x.dxf - scale = 1.000000, origin = (0.000000, 0.000000), method = manual</desc>
  <defs
     id="defs5214">
    <marker
       id="DistanceX"
       orient="auto"
       refX="0"
       refY="0"
       style="overflow:visible">
      <path
         d="M 3,-3 -3,3 M 0,-5 V 5"
         style="stroke:#000000;stroke-width:0.5"
         id="path5202"
         inkscape:connector-curvature="0" />
    </marker>
    <pattern
       height="8"
       id="Hatch"
       patternUnits="userSpaceOnUse"
       width="8"
       x="0"
       y="0">
      <path
         d="M8 4 l-4,4"
         linecap="square"
         stroke="#000000"
         stroke-width="0.25"
         id="path5205" />
      <path
         d="M6 2 l-4,4"
         linecap="square"
         stroke="#000000"
         stroke-width="0.25"
         id="path5207" />
      <path
         d="M4 0 l-4,4"
         linecap="square"
         stroke="#000000"
         stroke-width="0.25"
         id="path5209" />
    </pattern>
    <symbol
       id="*MODEL_SPACE" />
    <symbol
       id="*PAPER_SPACE" />
  </defs>
  <g
     inkscape:groupmode="layer"
     inkscape:label="0"
     id="g5218"
     transform="translate(439.32196,-1129.7037)">
    <path
       d="m 317.08355,1130.2037 v 30.1113 h -20.39064 v 19.0226 h -11.33858 a 44.315839,44.315839 0 0 0 -41.57481,0 h -11.33858 v -19.0226 h -11.33858 v 19.0226 h -11.33859 a 44.315839,44.315839 0 0 0 -41.5748,0 H 156.85039 V 1160.315 H 145.5118 v 19.0226 h -11.33858 a 44.315839,44.315839 0 0 0 -41.5748,0 H 81.259837 V 1160.315 H 69.921254 v 19.0226 H 58.582671 a 44.315839,44.315839 0 0 0 -41.574803,0 H 5.669286 V 1160.315 H -5.669297 v 19.0226 H -17.00788 a 44.315839,44.315839 0 0 0 -41.574803,0 h -11.338582 v -19.0226 h -11.338583 v 19.0226 h -11.338583 a 44.315839,44.315839 0 0 0 -41.574799,0 h -11.33859 v -19.0226 h -11.33858 v 19.0226 h -11.33858 a 44.315839,44.315839 0 0 0 -41.57481,0 h -11.33858 v -19.0226 h -11.33858 v 19.0226 h -11.33858 a 44.315839,44.315839 0 0 0 -41.57481,0 h -11.33858 v -19.0226 h -11.33858 v 19.0226 h -11.33858 a 44.315839,44.315839 0 0 0 -41.57481,0 h -11.33858 v -19.0226 h -11.33858 v 19.0226 h -55.19991 v -49.1339 z"
       style="fill:none;stroke:#ff0000;stroke-opacity:1"
       id="path5216"
       inkscape:connector-curvature="0" />
  </g>
</svg>
